<svg xmlns="http://www.w3.org/2000/svg" version="1.1" viewBox="2 2 20 20"><path d="" stroke="none" fill="#080404" fill-rule="evenodd"/><path d="M 13 3.031 L 13 4.063 14.572 4.666 L 16.143 5.269 12.370 9.133 L 8.597 12.997 9.800 14.200 L 11.003 15.403 14.867 11.630 L 18.731 7.857 19.334 9.428 L 19.937 11 20.969 11 L 22 11 22 6.500 L 22 2 17.500 2 L 13 2 13 3.031 M 2 13.500 L 2 22 10.500 22 L 19 22 19 17.917 L 19 13.833 17.750 14.245 L 16.500 14.657 16.180 16.828 L 15.861 19 10.430 19 L 5 19 5 13.500 L 5 8 7.500 8 L 10 8 10 6.500 L 10 5 6 5 L 2 5 2 13.500" stroke="none" fill-rule="evenodd"/></svg>